<svg width="24" height="22" viewBox="0 0 24 22" fill="none" xmlns="http://www.w3.org/2000/svg">
<path d="M22.4142 3.41421L22.8385 2.98995L22.4142 3.41421ZM20.5858 1.58579L20.1615 2.01005L20.5858 1.58579ZM4.82843 1.6H19.1716V0.4H4.82843V1.6ZM2.01005 3.83848L3.83848 2.01005L2.98995 1.16152L1.16152 2.98995L2.01005 3.83848ZM1.6 19V4.82843H0.4V19H1.6ZM21 20.4H3V21.6H21V20.4ZM22.4 4.82843V19H23.6V4.82843H22.4ZM20.1615 2.01005L21.99 3.83848L22.8385 2.98995L21.01 1.16152L20.1615 2.01005ZM23.6 4.82843C23.6 4.13886 23.3261 3.47754 22.8385 2.98995L21.99 3.83848C22.2525 4.10103 22.4 4.45712 22.4 4.82843H23.6ZM21 21.6C22.4359 21.6 23.6 20.4359 23.6 19H22.4C22.4 19.7732 21.7732 20.4 21 20.4V21.6ZM0.4 19C0.4 20.4359 1.56406 21.6 3 21.6V20.4C2.2268 20.4 1.6 19.7732 1.6 19H0.4ZM1.16152 2.98995C0.673928 3.47754 0.4 4.13886 0.4 4.82843H1.6C1.6 4.45712 1.7475 4.10103 2.01005 3.83848L1.16152 2.98995ZM19.1716 1.6C19.5429 1.6 19.899 1.7475 20.1615 2.01005L21.01 1.16152C20.5225 0.673928 19.8611 0.4 19.1716 0.4V1.6ZM4.82843 0.4C4.13886 0.4 3.47754 0.673928 2.98995 1.16152L3.83848 2.01005C4.10103 1.7475 4.45712 1.6 4.82843 1.6V0.4Z" fill="#002140"/>
</svg>
