<svg width="20" height="21" viewBox="0 0 20 21" fill="none" xmlns="http://www.w3.org/2000/svg">
<ellipse cx="3.28011" cy="13.2919" rx="3.33233" ry="2.1407" transform="rotate(13.3605 3.28011 13.2919)" fill="#0D986A"/>
<ellipse cx="4.50811" cy="7.03438" rx="3.68717" ry="2.78827" transform="rotate(39.1947 4.50811 7.03438)" fill="#0D986A"/>
<ellipse cx="9.97146" cy="3.60386" rx="3.68717" ry="2.78827" transform="rotate(71.0457 9.97146 3.60386)" fill="#0D986A"/>
<ellipse cx="16.2508" cy="4.09721" rx="2.99173" ry="2.24612" transform="rotate(85.1851 16.2508 4.09721)" fill="#0D986A"/>
<path d="M20 12.4477C20 14.6229 16.9916 16.6594 15.1866 16.6594C13.2408 19.6678 12.1783 20.2694 10.9749 20.2694C9.30876 20.2694 7.38605 17.9553 7.38605 14.6229C7.38605 11.2906 10.0936 8.37482 13.8424 8.37482C17.5913 8.37482 20 10.2725 20 12.4477Z" fill="#0D986A"/>
</svg>
