<svg width="24" height="22" viewBox="0 0 24 22" fill="none" xmlns="http://www.w3.org/2000/svg">
<path d="M6.56871 7.86209H3.46545C3.0372 7.86209 2.68964 8.2081 2.68964 8.63791C2.68964 9.06616 3.0372 9.41372 3.46545 9.41372H4.24127C4.24127 13.6978 7.71381 17.1719 11.9994 17.1719C16.2835 17.1719 19.7576 13.6978 19.7576 9.41372H20.5334C20.9601 9.41372 21.3092 9.06616 21.3092 8.63791C21.3092 8.20966 20.9601 7.86209 20.5334 7.86209H17.4301C17.0019 7.86209 16.6543 8.20966 16.6543 8.63791C16.6543 9.06616 17.0019 9.41372 17.4301 9.41372H18.2059C18.2059 12.8397 15.427 15.6202 11.9994 15.6202C8.57186 15.6202 5.7929 12.8397 5.7929 9.41372H6.56871C6.99541 9.41372 7.34452 9.06616 7.34452 8.63791C7.34452 8.20966 6.99541 7.86209 6.56871 7.86209Z" fill="#002140"/>
<path d="M22.7733 3.11816L23.2122 2.67927L22.7733 3.11816ZM20.8819 1.22668L20.443 1.66558L20.8819 1.22668ZM4.58112 1.24139H19.4189V6.28933e-06H4.58112V1.24139ZM1.66555 3.55706L3.55703 1.66558L2.67924 0.78779L0.787758 2.67927L1.66555 3.55706ZM1.24136 19.2414V4.58115H-2.52806e-05V19.2414H1.24136ZM21.3104 20.6897H2.68963V21.9311H21.3104V20.6897ZM22.7586 4.58115V19.2414H24V4.58115H22.7586ZM20.443 1.66558L22.3345 3.55706L23.2122 2.67927L21.3208 0.78779L20.443 1.66558ZM24 4.58115C24 3.86781 23.7167 3.18368 23.2122 2.67927L22.3345 3.55706C22.6061 3.82866 22.7586 4.19704 22.7586 4.58115H24ZM21.3104 21.9311C22.7958 21.9311 24 20.7269 24 19.2414H22.7586C22.7586 20.0413 22.1102 20.6897 21.3104 20.6897V21.9311ZM-2.52806e-05 19.2414C-2.52806e-05 20.7269 1.20418 21.9311 2.68963 21.9311V20.6897C1.88977 20.6897 1.24136 20.0413 1.24136 19.2414H-2.52806e-05ZM0.787758 2.67927C0.283349 3.18368 -2.52806e-05 3.8678 -2.52806e-05 4.58115H1.24136C1.24136 4.19704 1.39394 3.82866 1.66555 3.55706L0.787758 2.67927ZM19.4189 1.24139C19.803 1.24139 20.1714 1.39397 20.443 1.66558L21.3208 0.78779C20.8164 0.28338 20.1322 6.28933e-06 19.4189 6.28933e-06V1.24139ZM4.58112 6.28933e-06C3.86777 6.28933e-06 3.18365 0.283381 2.67924 0.78779L3.55703 1.66558C3.82863 1.39397 4.19701 1.24139 4.58112 1.24139V6.28933e-06Z" fill="#002140"/>
</svg>
