<svg width="53" height="53" viewBox="0 0 53 53" fill="none" xmlns="http://www.w3.org/2000/svg">
<path d="M2.19219 12.1435C3.48914 7.27997 7.27461 3.47305 12.1308 2.14865L13.7478 1.70764C22.0963 -0.569219 30.9021 -0.569218 39.2506 1.70764L40.8676 2.14865C45.7238 3.47305 49.5093 7.27997 50.8062 12.1435L51.362 14.2278C53.5927 22.5929 53.5419 31.4029 51.2148 39.7417L50.8677 40.9854C49.5303 45.7776 45.772 49.5138 40.972 50.8229L39.2506 51.2924C30.9021 53.5692 22.0963 53.5692 13.7478 51.2924L12.0264 50.8229C7.22638 49.5138 3.46809 45.7776 2.13074 40.9854L1.78364 39.7417C-0.543463 31.4029 -0.594311 22.5929 1.63638 14.2278L2.19219 12.1435Z" fill="#0D986A"/>
<circle opacity="0.6" cx="14.3835" cy="23.4711" r="4.03857" fill="white"/>
<circle opacity="0.6" cx="39.3468" cy="23.4711" r="4.03857" fill="white"/>
<path d="M14.3835 24.4807C16.4869 41.9812 37.5211 41.9812 39.6246 24.4807" stroke="white" stroke-width="1.5"/>
</svg>
