<svg width="29" height="24" viewBox="0 0 29 24" fill="none" xmlns="http://www.w3.org/2000/svg">
<path d="M6.43855 10.1399H3.39678C2.97702 10.1399 2.63634 10.479 2.63634 10.9003C2.63634 11.3201 2.97702 11.6608 3.39678 11.6608H4.15723C4.15723 15.8599 7.56097 19.2652 11.7616 19.2652C15.9608 19.2652 19.3661 15.8599 19.3661 11.6608H20.1265C20.5448 11.6608 20.887 11.3201 20.887 10.9003C20.887 10.4805 20.5448 10.1399 20.1265 10.1399H17.0847C16.665 10.1399 16.3243 10.4805 16.3243 10.9003C16.3243 11.3201 16.665 11.6608 17.0847 11.6608H17.8452C17.8452 15.0189 15.1213 17.7443 11.7616 17.7443C8.40201 17.7443 5.67811 15.0189 5.67811 11.6608H6.43855C6.8568 11.6608 7.19899 11.3201 7.19899 10.9003C7.19899 10.4805 6.8568 10.1399 6.43855 10.1399Z" fill="#002140"/>
<path d="M22.3221 5.48994L22.7523 5.05974L22.3221 5.48994ZM20.4681 3.63594L20.0379 4.06614L20.4681 3.63594ZM4.49034 3.65035H19.0341V2.43357H4.49034V3.65035ZM1.63255 5.92014L3.48655 4.06614L2.62615 3.20574L0.772149 5.05974L1.63255 5.92014ZM1.21676 21.2937V6.92393H-2.47797e-05V21.2937H1.21676ZM20.8881 22.7133H2.63634V23.9301H20.8881V22.7133ZM22.3077 6.92394V21.2937H23.5245V6.92394H22.3077ZM20.0379 4.06614L21.8919 5.92014L22.7523 5.05974L20.8983 3.20574L20.0379 4.06614ZM23.5245 6.92394C23.5245 6.22473 23.2467 5.55416 22.7523 5.05974L21.8919 5.92014C22.1581 6.18636 22.3077 6.54744 22.3077 6.92394H23.5245ZM20.8881 23.9301C22.3441 23.9301 23.5245 22.7497 23.5245 21.2937H22.3077C22.3077 22.0777 21.6721 22.7133 20.8881 22.7133V23.9301ZM-2.47797e-05 21.2937C-2.47797e-05 22.7497 1.18032 23.9301 2.63634 23.9301V22.7133C1.85233 22.7133 1.21676 22.0777 1.21676 21.2937H-2.47797e-05ZM0.772149 5.05974C0.277735 5.55416 -2.47797e-05 6.22473 -2.47797e-05 6.92393H1.21676C1.21676 6.54744 1.36632 6.18636 1.63255 5.92014L0.772149 5.05974ZM19.0341 3.65035C19.4106 3.65035 19.7717 3.79992 20.0379 4.06614L20.8983 3.20574C20.4039 2.71133 19.7333 2.43357 19.0341 2.43357V3.65035ZM4.49034 2.43357C3.79113 2.43357 3.12056 2.71133 2.62615 3.20574L3.48655 4.06614C3.75277 3.79992 4.11385 3.65035 4.49034 3.65035V2.43357Z" fill="#002140"/>
<circle cx="23.9301" cy="5.06993" r="5.06993" fill="#0D986A"/>
</svg>
