<svg width="21" height="19" viewBox="0 0 21 19" fill="none" xmlns="http://www.w3.org/2000/svg">
<path d="M19.5569 2.67949L19.1206 3.11586L19.5569 2.67949ZM18.0971 1.21964L18.5335 0.783264L18.0971 1.21964ZM4.13406 1.23426H16.6425V6.2532e-06H4.13406V1.23426ZM1.65601 3.11586L3.11586 1.65601L2.24311 0.783264L0.783264 2.24311L1.65601 3.11586ZM1.23426 16.3258V4.13406H6.2532e-06V16.3258H1.23426ZM18.1023 17.7657H2.67422V19H18.1023V17.7657ZM19.5423 4.13406V16.3258H20.7766V4.13406H19.5423ZM17.6607 1.65601L19.1206 3.11586L19.9933 2.24311L18.5335 0.783264L17.6607 1.65601ZM20.7766 4.13406C20.7766 3.42482 20.4948 2.74462 19.9933 2.24311L19.1206 3.11586C19.3906 3.3859 19.5423 3.75216 19.5423 4.13406H20.7766ZM18.1023 19C19.5793 19 20.7766 17.8027 20.7766 16.3258H19.5423C19.5423 17.121 18.8976 17.7657 18.1023 17.7657V19ZM6.2532e-06 16.3258C6.2532e-06 17.8027 1.19729 19 2.67422 19V17.7657C1.87895 17.7657 1.23426 17.121 1.23426 16.3258H6.2532e-06ZM0.783264 2.24311C0.281752 2.74462 6.2532e-06 3.42482 6.2532e-06 4.13406H1.23426C1.23426 3.75216 1.38597 3.3859 1.65601 3.11586L0.783264 2.24311ZM16.6425 1.23426C17.0244 1.23426 17.3907 1.38597 17.6607 1.65601L18.5335 0.783264C18.0319 0.281752 17.3517 6.2532e-06 16.6425 6.2532e-06V1.23426ZM4.13406 6.2532e-06C3.42482 6.2532e-06 2.74462 0.281752 2.24311 0.783264L3.11586 1.65601C3.3859 1.38597 3.75216 1.23426 4.13406 1.23426V6.2532e-06Z" fill="#F3F4F1"/>
</svg>
